<svg width="32" height="22" viewBox="0 0 32 22" fill="none" xmlns="http://www.w3.org/2000/svg">
<path d="M12.0721 20.8949L12.0632 20.8914L12.0354 20.8774C11.8727 20.7948 11.7113 20.71 11.5512 20.6231C9.62661 19.5677 7.82804 18.328 6.18532 16.9244C3.27607 14.4194 0.193604 10.7021 0.193604 6.12377C0.193604 2.7075 3.30894 -0.00171775 7.06909 -0.00171775C8.11439 -0.00644246 9.14739 0.206363 10.0913 0.620871C11.0352 1.03538 11.8656 1.64092 12.5209 2.39247C13.1764 1.64077 14.007 1.03513 14.9512 0.620617C15.8953 0.206102 16.9285 -0.00661815 17.974 -0.00171775C21.7329 -0.00171775 24.8483 2.7075 24.8483 6.12377C24.8483 10.7033 21.7658 14.4206 18.8565 16.9233C17.2138 18.3269 15.4153 19.5666 13.4907 20.6219C13.3306 20.7092 13.1692 20.7944 13.0064 20.8774L12.9786 20.8914L12.9698 20.8961L12.966 20.8973C12.8289 20.9643 12.6761 20.9993 12.5209 20.9993C12.3658 20.9993 12.213 20.9643 12.0759 20.8973L12.0721 20.8949Z" fill="white"/>
<path d="M23.2424 18.9665L26.6995 12.7326H24.3153V8.69898L20.739 14.9328H23.2424V18.9665ZM23.7193 21.1666C22.6199 21.1666 21.5867 20.9741 20.6198 20.5891C19.6529 20.2041 18.8118 19.6815 18.0966 19.0215C17.3813 18.3614 16.8151 17.5852 16.3978 16.6929C15.9806 15.8007 15.772 14.8472 15.772 13.8327C15.772 12.8182 15.9806 11.8648 16.3978 10.9725C16.8151 10.0802 17.3813 9.30403 18.0966 8.64398C18.8118 7.98393 19.6529 7.46139 20.6198 7.07636C21.5867 6.69132 22.6199 6.49881 23.7193 6.49881C24.8186 6.49881 25.8518 6.69132 26.8187 7.07636C27.7856 7.46139 28.6267 7.98393 29.342 8.64398C30.0572 9.30403 30.6235 10.0802 31.0407 10.9725C31.4579 11.8648 31.6665 12.8182 31.6665 13.8327C31.6665 14.8472 31.4579 15.8007 31.0407 16.6929C30.6235 17.5852 30.0572 18.3614 29.342 19.0215C28.6267 19.6815 27.7856 20.2041 26.8187 20.5891C25.8518 20.9741 24.8186 21.1666 23.7193 21.1666Z" fill="#894189"/>
<path d="M23.647 18.4997L26.7898 12.8326H24.6224V9.16565L21.3712 14.8328H23.647V18.4997ZM24.0805 20.4999C23.0811 20.4999 22.1419 20.3249 21.2628 19.9748C20.3838 19.6248 19.6192 19.1498 18.969 18.5497C18.3187 17.9497 17.804 17.2441 17.4247 16.4329C17.0454 15.6217 16.8557 14.755 16.8557 13.8327C16.8557 12.9104 17.0454 12.0437 17.4247 11.2325C17.804 10.4213 18.3187 9.7157 18.969 9.11565C19.6192 8.5156 20.3838 8.04057 21.2628 7.69054C22.1419 7.34051 23.0811 7.1655 24.0805 7.1655C25.08 7.1655 26.0192 7.34051 26.8982 7.69054C27.7772 8.04057 28.5418 8.5156 29.1921 9.11565C29.8423 9.7157 30.3571 10.4213 30.7364 11.2325C31.1157 12.0437 31.3053 12.9104 31.3053 13.8327C31.3053 14.755 31.1157 15.6217 30.7364 16.4329C30.3571 17.2441 29.8423 17.9497 29.1921 18.5497C28.5418 19.1498 27.7772 19.6248 26.8982 19.9748C26.0192 20.3249 25.08 20.4999 24.0805 20.4999Z" fill="white"/>
</svg>
